<svg xmlns="http://www.w3.org/2000/svg" xmlns:xlink="http://www.w3.org/1999/xlink" height="496pt" viewBox="0 -2 496 496" width="496pt"><linearGradient id="a" gradientUnits="userSpaceOnUse" x1="248" x2="248" y1="491.312" y2="-.0008"><stop offset="0" stop-color="#9f2fff"/><stop offset="1" stop-color="#0bb1d3"/></linearGradient><path d="m466.992188 428.984375-26.992188-7.710937v-4.074219c14.488281-10.136719 24-26.910157 24-45.886719v-16c0-30.871094-25.121094-56-56-56s-56 25.128906-56 56v16c0 18.976562 9.511719 35.757812 24 45.886719v4.074219l-26.992188 7.71875c-8.601562 2.457031-15.886718 7.703124-21.007812 14.558593-5.121094-6.855469-12.40625-12.101562-21.007812-14.566406l-26.992188-7.710937v-4.074219c14.488281-10.136719 24-26.910157 24-45.886719v-16c0-30.871094-25.121094-56-56-56s-56 25.128906-56 56v16c0 18.976562 9.511719 35.757812 24 45.886719v4.074219l-26.992188 7.71875c-8.601562 2.457031-15.886718 7.703124-21.007812 14.558593-5.121094-6.855469-12.40625-12.101562-21.007812-14.566406l-26.992188-7.710937v-4.074219c14.488281-10.136719 24-26.910157 24-45.886719v-16c0-30.871094-25.121094-56-56-56s-56 25.128906-56 56v16c0 18.976562 9.511719 35.757812 24 45.886719v4.074219l-26.992188 7.71875c-17.078124 4.878906-29.007812 20.703124-29.007812 38.464843v23.855469h496v-23.855469c0-17.761719-11.929688-33.585937-29.007812-38.472656zm-74.992188-4.03125c5.070312 1.519531 10.441406 2.359375 16 2.359375s10.929688-.839844 16-2.359375v2.359375c0 8.824219-7.175781 16-16 16s-16-7.175781-16-16zm-24-53.640625v-16c0-22.054688 17.945312-40 40-40s40 17.945312 40 40v16c0 22.054688-17.945312 40-40 40s-40-17.945312-40-40zm-136 53.640625c5.070312 1.519531 10.441406 2.359375 16 2.359375s10.929688-.839844 16-2.359375v2.359375c0 8.824219-7.175781 16-16 16s-16-7.175781-16-16zm-24-53.640625v-16c0-22.054688 17.945312-40 40-40s40 17.945312 40 40v16c0 22.054688-17.945312 40-40 40s-40-17.945312-40-40zm-136 53.640625c5.070312 1.519531 10.441406 2.359375 16 2.359375s10.929688-.839844 16-2.359375v2.359375c0 8.824219-7.175781 16-16 16s-16-7.175781-16-16zm-24-53.640625v-16c0-22.054688 17.945312-40 40-40s40 17.945312 40 40v16c0 22.054688-17.945312 40-40 40s-40-17.945312-40-40zm112 104h-144v-7.855469c0-10.65625 7.160156-20.152343 17.40625-23.082031l24.386719-6.96875c4.246093 12.691406 16.109375 21.90625 30.207031 21.90625s25.960938-9.222656 30.207031-21.90625l24.386719 6.960938c10.246094 2.9375 17.40625 12.433593 17.40625 23.089843zm160 0h-144v-7.855469c0-10.65625 7.160156-20.152343 17.40625-23.082031l24.386719-6.96875c4.246093 12.691406 16.109375 21.90625 30.207031 21.90625s25.960938-9.222656 30.207031-21.90625l24.386719 6.960938c10.246094 2.9375 17.40625 12.433593 17.40625 23.089843zm160 0h-144v-7.855469c0-10.65625 7.160156-20.152343 17.40625-23.082031l24.386719-6.96875c4.246093 12.691406 16.109375 21.90625 30.207031 21.90625s25.960938-9.222656 30.207031-21.90625l24.386719 6.960938c10.246094 2.9375 17.40625 12.433593 17.40625 23.089843zm-232-192c57.34375 0 104-46.65625 104-104s-46.65625-104-104-104-104 46.65625-104 104 46.65625 104 104 104zm75.574219-59.152344-4.964844-2.488281c-9.007813-4.511719-14.609375-13.558594-14.609375-23.9375 0-5.230469 1.535156-10.292969 4.441406-14.65625 4.902344-7.367187 13.125-11.765625 21.984375-11.765625h5.175781c.230469 2.640625.398438 5.296875.398438 8 0 16.390625-4.585938 31.6875-12.425781 44.847656zm-7.742188-100.847656h-5.28125c-16.863281 0-31.503906 12-34.816406 28.535156-1.328125 6.640625-7.207031 11.464844-13.980469 11.464844-5.433594 0-10.320312-3.023438-12.753906-7.878906l-2.6875-5.386719c-5.777344-11.558594-17.390625-18.734375-30.3125-18.734375-6.824219 0-12.953125-3.792969-16-9.886719l-5.800781-11.59375c14.898437-11.558593 33.527343-18.519531 53.800781-18.519531 27.265625 0 51.671875 12.472656 67.832031 32zm-133.800781-2.046875 3.65625 7.308594c5.777344 11.5625 17.390625 18.738281 30.3125 18.738281 6.824219 0 12.953125 3.792969 16 9.886719l2.6875 5.386719c5.160156 10.316406 15.527344 16.726562 27.066406 16.726562 14.367188 0 26.847656-10.222656 29.660156-24.320312 1.824219-9.089844 9.867188-15.679688 19.128907-15.679688h15.738281c2.597656 5.070312 4.71875 10.414062 6.304688 16h-2.171876c-14.214843 0-27.414062 7.0625-35.292968 18.886719-4.65625 6.992187-7.121094 15.136719-7.121094 23.839843 0 16.167969 8.984375 30.703126 23.449219 37.945313l2.589843 1.296875c-6.816406 7.757812-14.917968 14.367188-24.054687 19.351562l-12.671875-16.898437c-5.824219-7.78125-15.113281-12.421875-24.832031-12.421875h-2.488281c-6.921876 0-12.921876-4.6875-14.601563-11.402344l-.566406-2.261718c-2.585938-10.351563-10.167969-18.542969-20.296875-21.921876-4.902344-1.636718-8.582032-5.605468-9.839844-10.628906l-.566406-2.265625c-3.457032-13.847656-15.839844-23.519531-30.113282-23.519531h-10.601562c3.632812-12.777344 10.074219-24.34375 18.625-34.046875zm-21.625 50.046875h13.601562c6.921876 0 12.921876 4.6875 14.601563 11.398438l.566406 2.265624c2.585938 10.351563 10.167969 18.542969 20.296875 21.917969 4.902344 1.640625 8.582032 5.609375 9.839844 10.632813l.566406 2.265625c3.457032 13.839843 15.839844 23.511719 30.121094 23.511719h2.488281c4.710938 0 9.207031 2.246093 12.03125 6.015624l10.320313 13.769532c-8.472656 2.726562-17.480469 4.222656-26.839844 4.222656-48.519531 0-88-39.480469-88-88 0-2.703125.167969-5.359375.40625-8zm79.59375-112v-28.6875l-10.34375 10.34375-11.3125-11.3125 29.65625-29.65625 29.65625 29.65625-11.3125 11.3125-10.34375-10.34375v28.6875zm-187.3125 120 29.65625-29.65625 11.3125 11.3125-10.34375 10.34375h44.6875v16h-44.6875l10.34375 10.34375-11.3125 11.3125zm349.65625 18.34375 10.34375-10.34375h-44.6875v-16h44.6875l-10.34375-10.34375 11.3125-11.3125 29.65625 29.65625-29.65625 29.65625zm-42.34375-106.34375v-12.6875l-18.34375 18.34375-11.3125-11.3125 18.34375-18.34375h-12.6875v-16h40v40zm-200-24h-12.6875l18.34375 18.34375-11.3125 11.3125-18.34375-18.34375v12.6875h-16v-40h40zm0 0" fill="url(#a)"/><script xmlns=""/></svg>